<mxfile host="app.diagrams.net" modified="2024-02-24T10:13:55.083Z" agent="Mozilla/5.0 (Windows NT 10.0; Win64; x64) AppleWebKit/537.36 (KHTML, like Gecko) Chrome/122.0.0.0 Safari/537.36" etag="ubUCdRlLt2g1GwnNyVS5" version="23.1.6" type="device">
  <diagram id="R2lEEEUBdFMjLlhIrx00" name="Page-1">
    <mxGraphModel dx="1828" dy="518" grid="1" gridSize="10" guides="1" tooltips="1" connect="1" arrows="1" fold="1" page="1" pageScale="1" pageWidth="850" pageHeight="1100" math="0" shadow="0" extFonts="Permanent Marker^https://fonts.googleapis.com/css?family=Permanent+Marker">
      <root>
        <mxCell id="0" />
        <mxCell id="1" parent="0" />
        <mxCell id="jTlNC3tFU4OE5lcHnedC-1" value="Richieste_di_scambio" style="rounded=0;whiteSpace=wrap;html=1;" parent="1" vertex="1">
          <mxGeometry x="110" y="90" width="120" height="60" as="geometry" />
        </mxCell>
        <mxCell id="cnQAAioc3_aUL8yNNFTR-1" value="Utenti" style="rounded=0;whiteSpace=wrap;html=1;" parent="1" vertex="1">
          <mxGeometry x="110" y="350" width="120" height="60" as="geometry" />
        </mxCell>
        <mxCell id="cnQAAioc3_aUL8yNNFTR-2" value="Libri" style="rounded=0;whiteSpace=wrap;html=1;" parent="1" vertex="1">
          <mxGeometry x="520" y="350" width="120" height="60" as="geometry" />
        </mxCell>
        <mxCell id="cnQAAioc3_aUL8yNNFTR-3" value="Recensioni" style="rounded=0;whiteSpace=wrap;html=1;" parent="1" vertex="1">
          <mxGeometry x="110" y="600" width="120" height="60" as="geometry" />
        </mxCell>
        <mxCell id="cnQAAioc3_aUL8yNNFTR-4" value="appartenenza" style="rhombus;whiteSpace=wrap;html=1;" parent="1" vertex="1">
          <mxGeometry x="330" y="340" width="95" height="80" as="geometry" />
        </mxCell>
        <mxCell id="cnQAAioc3_aUL8yNNFTR-5" value="haRecensioni" style="rhombus;whiteSpace=wrap;html=1;" parent="1" vertex="1">
          <mxGeometry x="525" y="590" width="110" height="80" as="geometry" />
        </mxCell>
        <mxCell id="cnQAAioc3_aUL8yNNFTR-6" value="lasciaRecensione" style="rhombus;whiteSpace=wrap;html=1;" parent="1" vertex="1">
          <mxGeometry x="115" y="470" width="110" height="80" as="geometry" />
        </mxCell>
        <mxCell id="cnQAAioc3_aUL8yNNFTR-7" value="effettuaRichiesta" style="rhombus;whiteSpace=wrap;html=1;" parent="1" vertex="1">
          <mxGeometry x="115" y="210" width="110" height="80" as="geometry" />
        </mxCell>
        <mxCell id="cnQAAioc3_aUL8yNNFTR-8" value="coinvoltoInScambio" style="rhombus;whiteSpace=wrap;html=1;" parent="1" vertex="1">
          <mxGeometry x="515" y="80" width="130" height="80" as="geometry" />
        </mxCell>
        <mxCell id="cnQAAioc3_aUL8yNNFTR-10" value="" style="endArrow=none;html=1;rounded=0;exitX=1;exitY=0.5;exitDx=0;exitDy=0;entryX=0;entryY=0.5;entryDx=0;entryDy=0;" parent="1" source="jTlNC3tFU4OE5lcHnedC-1" target="cnQAAioc3_aUL8yNNFTR-8" edge="1">
          <mxGeometry width="50" height="50" relative="1" as="geometry">
            <mxPoint x="400" y="300" as="sourcePoint" />
            <mxPoint x="450" y="250" as="targetPoint" />
          </mxGeometry>
        </mxCell>
        <mxCell id="cnQAAioc3_aUL8yNNFTR-11" value="" style="endArrow=none;html=1;rounded=0;entryX=0.5;entryY=1;entryDx=0;entryDy=0;exitX=0.5;exitY=0;exitDx=0;exitDy=0;" parent="1" source="cnQAAioc3_aUL8yNNFTR-2" target="cnQAAioc3_aUL8yNNFTR-8" edge="1">
          <mxGeometry width="50" height="50" relative="1" as="geometry">
            <mxPoint x="400" y="300" as="sourcePoint" />
            <mxPoint x="450" y="250" as="targetPoint" />
          </mxGeometry>
        </mxCell>
        <mxCell id="cnQAAioc3_aUL8yNNFTR-12" value="" style="endArrow=none;html=1;rounded=0;exitX=1;exitY=0.5;exitDx=0;exitDy=0;entryX=0;entryY=0.5;entryDx=0;entryDy=0;" parent="1" source="cnQAAioc3_aUL8yNNFTR-4" target="cnQAAioc3_aUL8yNNFTR-2" edge="1">
          <mxGeometry width="50" height="50" relative="1" as="geometry">
            <mxPoint x="400" y="300" as="sourcePoint" />
            <mxPoint x="450" y="250" as="targetPoint" />
          </mxGeometry>
        </mxCell>
        <mxCell id="cnQAAioc3_aUL8yNNFTR-13" value="" style="endArrow=none;html=1;rounded=0;exitX=1;exitY=0.5;exitDx=0;exitDy=0;entryX=0;entryY=0.5;entryDx=0;entryDy=0;" parent="1" source="cnQAAioc3_aUL8yNNFTR-1" target="cnQAAioc3_aUL8yNNFTR-4" edge="1">
          <mxGeometry width="50" height="50" relative="1" as="geometry">
            <mxPoint x="400" y="300" as="sourcePoint" />
            <mxPoint x="450" y="250" as="targetPoint" />
          </mxGeometry>
        </mxCell>
        <mxCell id="cnQAAioc3_aUL8yNNFTR-14" value="" style="endArrow=none;html=1;rounded=0;exitX=0.5;exitY=1;exitDx=0;exitDy=0;entryX=0.5;entryY=0;entryDx=0;entryDy=0;" parent="1" source="cnQAAioc3_aUL8yNNFTR-1" target="cnQAAioc3_aUL8yNNFTR-6" edge="1">
          <mxGeometry width="50" height="50" relative="1" as="geometry">
            <mxPoint x="360" y="540" as="sourcePoint" />
            <mxPoint x="410" y="490" as="targetPoint" />
          </mxGeometry>
        </mxCell>
        <mxCell id="cnQAAioc3_aUL8yNNFTR-15" value="" style="endArrow=none;html=1;rounded=0;exitX=0.5;exitY=1;exitDx=0;exitDy=0;entryX=0.5;entryY=0;entryDx=0;entryDy=0;" parent="1" source="cnQAAioc3_aUL8yNNFTR-7" target="cnQAAioc3_aUL8yNNFTR-1" edge="1">
          <mxGeometry width="50" height="50" relative="1" as="geometry">
            <mxPoint x="400" y="300" as="sourcePoint" />
            <mxPoint x="450" y="250" as="targetPoint" />
          </mxGeometry>
        </mxCell>
        <mxCell id="cnQAAioc3_aUL8yNNFTR-16" value="" style="endArrow=none;html=1;rounded=0;exitX=0.5;exitY=1;exitDx=0;exitDy=0;entryX=0.5;entryY=0;entryDx=0;entryDy=0;" parent="1" source="jTlNC3tFU4OE5lcHnedC-1" target="cnQAAioc3_aUL8yNNFTR-7" edge="1">
          <mxGeometry width="50" height="50" relative="1" as="geometry">
            <mxPoint x="400" y="300" as="sourcePoint" />
            <mxPoint x="450" y="250" as="targetPoint" />
          </mxGeometry>
        </mxCell>
        <mxCell id="cnQAAioc3_aUL8yNNFTR-17" value="" style="endArrow=none;html=1;rounded=0;entryX=0.5;entryY=1;entryDx=0;entryDy=0;exitX=0.5;exitY=0;exitDx=0;exitDy=0;" parent="1" source="cnQAAioc3_aUL8yNNFTR-5" target="cnQAAioc3_aUL8yNNFTR-2" edge="1">
          <mxGeometry width="50" height="50" relative="1" as="geometry">
            <mxPoint x="400" y="390" as="sourcePoint" />
            <mxPoint x="450" y="340" as="targetPoint" />
          </mxGeometry>
        </mxCell>
        <mxCell id="cnQAAioc3_aUL8yNNFTR-18" value="" style="endArrow=none;html=1;rounded=0;exitX=0.5;exitY=1;exitDx=0;exitDy=0;entryX=0.5;entryY=0;entryDx=0;entryDy=0;" parent="1" source="cnQAAioc3_aUL8yNNFTR-6" target="cnQAAioc3_aUL8yNNFTR-3" edge="1">
          <mxGeometry width="50" height="50" relative="1" as="geometry">
            <mxPoint x="400" y="390" as="sourcePoint" />
            <mxPoint x="450" y="340" as="targetPoint" />
          </mxGeometry>
        </mxCell>
        <mxCell id="cnQAAioc3_aUL8yNNFTR-19" value="" style="endArrow=none;html=1;rounded=0;exitX=1;exitY=0.5;exitDx=0;exitDy=0;entryX=0;entryY=0.5;entryDx=0;entryDy=0;" parent="1" source="cnQAAioc3_aUL8yNNFTR-3" target="cnQAAioc3_aUL8yNNFTR-5" edge="1">
          <mxGeometry width="50" height="50" relative="1" as="geometry">
            <mxPoint x="400" y="600" as="sourcePoint" />
            <mxPoint x="450" y="550" as="targetPoint" />
          </mxGeometry>
        </mxCell>
        <mxCell id="gPwC9rBWzXshsSk854vz-1" value="IDrequest" style="text;html=1;align=center;verticalAlign=middle;whiteSpace=wrap;rounded=0;" parent="1" vertex="1">
          <mxGeometry x="100" y="10" width="60" height="30" as="geometry" />
        </mxCell>
        <mxCell id="gPwC9rBWzXshsSk854vz-2" value="libroRichiesto" style="text;html=1;align=center;verticalAlign=middle;whiteSpace=wrap;rounded=0;" parent="1" vertex="1">
          <mxGeometry x="10" y="60" width="60" height="30" as="geometry" />
        </mxCell>
        <mxCell id="gPwC9rBWzXshsSk854vz-3" value="libroOffertoInCambio" style="text;html=1;align=center;verticalAlign=middle;whiteSpace=wrap;rounded=0;" parent="1" vertex="1">
          <mxGeometry y="30" width="60" height="30" as="geometry" />
        </mxCell>
        <mxCell id="gPwC9rBWzXshsSk854vz-4" value="messaggioAggiuntivo" style="text;html=1;align=center;verticalAlign=middle;whiteSpace=wrap;rounded=0;" parent="1" vertex="1">
          <mxGeometry x="220" y="10" width="60" height="30" as="geometry" />
        </mxCell>
        <mxCell id="gPwC9rBWzXshsSk854vz-5" value="statoRichiesta" style="text;html=1;align=center;verticalAlign=middle;whiteSpace=wrap;rounded=0;" parent="1" vertex="1">
          <mxGeometry y="120" width="60" height="30" as="geometry" />
        </mxCell>
        <mxCell id="gPwC9rBWzXshsSk854vz-6" value="dataRichiesta" style="text;html=1;align=center;verticalAlign=middle;whiteSpace=wrap;rounded=0;" parent="1" vertex="1">
          <mxGeometry x="10" y="90" width="60" height="30" as="geometry" />
        </mxCell>
        <mxCell id="gPwC9rBWzXshsSk854vz-8" value="" style="ellipse;whiteSpace=wrap;html=1;aspect=fixed;fillColor=none;" parent="1" vertex="1">
          <mxGeometry x="70" y="130" width="10" height="10" as="geometry" />
        </mxCell>
        <mxCell id="gPwC9rBWzXshsSk854vz-9" value="" style="ellipse;whiteSpace=wrap;html=1;aspect=fixed;fillColor=none;" parent="1" vertex="1">
          <mxGeometry x="80" y="100" width="10" height="10" as="geometry" />
        </mxCell>
        <mxCell id="gPwC9rBWzXshsSk854vz-10" value="" style="ellipse;whiteSpace=wrap;html=1;aspect=fixed;fillColor=none;" parent="1" vertex="1">
          <mxGeometry x="200" y="40" width="10" height="10" as="geometry" />
        </mxCell>
        <mxCell id="gPwC9rBWzXshsSk854vz-11" value="" style="ellipse;whiteSpace=wrap;html=1;aspect=fixed;fillColor=none;" parent="1" vertex="1">
          <mxGeometry x="90" y="40" width="10" height="10" as="geometry" />
        </mxCell>
        <mxCell id="gPwC9rBWzXshsSk854vz-12" value="" style="ellipse;whiteSpace=wrap;html=1;aspect=fixed;fillColor=none;" parent="1" vertex="1">
          <mxGeometry x="80" y="70" width="10" height="10" as="geometry" />
        </mxCell>
        <mxCell id="gPwC9rBWzXshsSk854vz-14" value="" style="ellipse;whiteSpace=wrap;html=1;aspect=fixed;fillColor=#dae8fc;strokeColor=#6c8ebf;" parent="1" vertex="1">
          <mxGeometry x="160" y="20" width="10" height="10" as="geometry" />
        </mxCell>
        <mxCell id="gPwC9rBWzXshsSk854vz-20" value="" style="endArrow=none;html=1;rounded=0;exitX=0.5;exitY=1;exitDx=0;exitDy=0;entryX=0.456;entryY=-0.007;entryDx=0;entryDy=0;entryPerimeter=0;" parent="1" source="gPwC9rBWzXshsSk854vz-14" target="jTlNC3tFU4OE5lcHnedC-1" edge="1">
          <mxGeometry width="50" height="50" relative="1" as="geometry">
            <mxPoint x="160" y="150" as="sourcePoint" />
            <mxPoint x="210" y="100" as="targetPoint" />
          </mxGeometry>
        </mxCell>
        <mxCell id="gPwC9rBWzXshsSk854vz-21" value="" style="endArrow=none;html=1;rounded=0;exitX=1;exitY=0.5;exitDx=0;exitDy=0;entryX=0;entryY=0.75;entryDx=0;entryDy=0;" parent="1" source="gPwC9rBWzXshsSk854vz-8" target="jTlNC3tFU4OE5lcHnedC-1" edge="1">
          <mxGeometry width="50" height="50" relative="1" as="geometry">
            <mxPoint x="160" y="150" as="sourcePoint" />
            <mxPoint x="210" y="100" as="targetPoint" />
          </mxGeometry>
        </mxCell>
        <mxCell id="gPwC9rBWzXshsSk854vz-22" value="" style="endArrow=none;html=1;rounded=0;exitX=1;exitY=0.5;exitDx=0;exitDy=0;entryX=0;entryY=0.25;entryDx=0;entryDy=0;" parent="1" source="gPwC9rBWzXshsSk854vz-9" target="jTlNC3tFU4OE5lcHnedC-1" edge="1">
          <mxGeometry width="50" height="50" relative="1" as="geometry">
            <mxPoint x="160" y="150" as="sourcePoint" />
            <mxPoint x="210" y="100" as="targetPoint" />
          </mxGeometry>
        </mxCell>
        <mxCell id="gPwC9rBWzXshsSk854vz-23" value="" style="endArrow=none;html=1;rounded=0;exitX=1;exitY=1;exitDx=0;exitDy=0;entryX=0;entryY=0;entryDx=0;entryDy=0;" parent="1" source="gPwC9rBWzXshsSk854vz-12" target="jTlNC3tFU4OE5lcHnedC-1" edge="1">
          <mxGeometry width="50" height="50" relative="1" as="geometry">
            <mxPoint x="160" y="150" as="sourcePoint" />
            <mxPoint x="210" y="100" as="targetPoint" />
          </mxGeometry>
        </mxCell>
        <mxCell id="gPwC9rBWzXshsSk854vz-24" value="" style="endArrow=none;html=1;rounded=0;exitX=0.177;exitY=-0.015;exitDx=0;exitDy=0;exitPerimeter=0;entryX=1;entryY=1;entryDx=0;entryDy=0;" parent="1" source="jTlNC3tFU4OE5lcHnedC-1" target="gPwC9rBWzXshsSk854vz-11" edge="1">
          <mxGeometry width="50" height="50" relative="1" as="geometry">
            <mxPoint x="160" y="150" as="sourcePoint" />
            <mxPoint x="100" y="45" as="targetPoint" />
          </mxGeometry>
        </mxCell>
        <mxCell id="gPwC9rBWzXshsSk854vz-25" value="" style="endArrow=none;html=1;rounded=0;entryX=0.5;entryY=1;entryDx=0;entryDy=0;exitX=0.75;exitY=0;exitDx=0;exitDy=0;" parent="1" source="jTlNC3tFU4OE5lcHnedC-1" target="gPwC9rBWzXshsSk854vz-10" edge="1">
          <mxGeometry width="50" height="50" relative="1" as="geometry">
            <mxPoint x="160" y="150" as="sourcePoint" />
            <mxPoint x="210" y="100" as="targetPoint" />
          </mxGeometry>
        </mxCell>
        <mxCell id="gPwC9rBWzXshsSk854vz-26" value="IDreview" style="text;html=1;align=center;verticalAlign=middle;whiteSpace=wrap;rounded=0;" parent="1" vertex="1">
          <mxGeometry y="525" width="60" height="30" as="geometry" />
        </mxCell>
        <mxCell id="T7bW6BCVdLZ2KC2ut9-W-3" value="valutazione" style="text;html=1;align=center;verticalAlign=middle;whiteSpace=wrap;rounded=0;" parent="1" vertex="1">
          <mxGeometry x="-60" y="640" width="60" height="30" as="geometry" />
        </mxCell>
        <mxCell id="T7bW6BCVdLZ2KC2ut9-W-4" value="commento" style="text;html=1;align=center;verticalAlign=middle;whiteSpace=wrap;rounded=0;" parent="1" vertex="1">
          <mxGeometry x="-10" y="720" width="60" height="30" as="geometry" />
        </mxCell>
        <mxCell id="T7bW6BCVdLZ2KC2ut9-W-5" value="dataRecensione" style="text;html=1;align=center;verticalAlign=middle;whiteSpace=wrap;rounded=0;" parent="1" vertex="1">
          <mxGeometry x="-40" y="610" width="60" height="30" as="geometry" />
        </mxCell>
        <mxCell id="T7bW6BCVdLZ2KC2ut9-W-6" value="nomeUtente" style="text;html=1;align=center;verticalAlign=middle;whiteSpace=wrap;rounded=0;" parent="1" vertex="1">
          <mxGeometry x="-30" y="680" width="60" height="30" as="geometry" />
        </mxCell>
        <mxCell id="T7bW6BCVdLZ2KC2ut9-W-7" value="titoloLibroRecensito" style="text;html=1;align=center;verticalAlign=middle;whiteSpace=wrap;rounded=0;" parent="1" vertex="1">
          <mxGeometry x="-50" y="570" width="70" height="30" as="geometry" />
        </mxCell>
        <mxCell id="T7bW6BCVdLZ2KC2ut9-W-8" value="" style="ellipse;whiteSpace=wrap;html=1;aspect=fixed;fillColor=none;" parent="1" vertex="1">
          <mxGeometry x="50" y="580" width="10" height="10" as="geometry" />
        </mxCell>
        <mxCell id="T7bW6BCVdLZ2KC2ut9-W-9" value="" style="ellipse;whiteSpace=wrap;html=1;aspect=fixed;fillColor=none;" parent="1" vertex="1">
          <mxGeometry x="40" y="620" width="10" height="10" as="geometry" />
        </mxCell>
        <mxCell id="T7bW6BCVdLZ2KC2ut9-W-10" value="" style="ellipse;whiteSpace=wrap;html=1;aspect=fixed;fillColor=none;" parent="1" vertex="1">
          <mxGeometry x="10" y="650" width="10" height="10" as="geometry" />
        </mxCell>
        <mxCell id="T7bW6BCVdLZ2KC2ut9-W-11" value="" style="ellipse;whiteSpace=wrap;html=1;aspect=fixed;fillColor=none;" parent="1" vertex="1">
          <mxGeometry x="40" y="690" width="10" height="10" as="geometry" />
        </mxCell>
        <mxCell id="T7bW6BCVdLZ2KC2ut9-W-12" value="" style="ellipse;whiteSpace=wrap;html=1;aspect=fixed;fillColor=none;" parent="1" vertex="1">
          <mxGeometry x="60" y="730" width="10" height="10" as="geometry" />
        </mxCell>
        <mxCell id="T7bW6BCVdLZ2KC2ut9-W-13" value="" style="ellipse;whiteSpace=wrap;html=1;aspect=fixed;fillColor=#dae8fc;strokeColor=#6c8ebf;" parent="1" vertex="1">
          <mxGeometry x="60" y="535" width="10" height="10" as="geometry" />
        </mxCell>
        <mxCell id="T7bW6BCVdLZ2KC2ut9-W-14" value="" style="endArrow=none;html=1;rounded=0;exitX=1;exitY=0;exitDx=0;exitDy=0;entryX=0.25;entryY=1;entryDx=0;entryDy=0;" parent="1" source="T7bW6BCVdLZ2KC2ut9-W-12" target="cnQAAioc3_aUL8yNNFTR-3" edge="1">
          <mxGeometry width="50" height="50" relative="1" as="geometry">
            <mxPoint x="80" y="630" as="sourcePoint" />
            <mxPoint x="130" y="580" as="targetPoint" />
          </mxGeometry>
        </mxCell>
        <mxCell id="T7bW6BCVdLZ2KC2ut9-W-15" value="" style="endArrow=none;html=1;rounded=0;exitX=1;exitY=0;exitDx=0;exitDy=0;entryX=0;entryY=1;entryDx=0;entryDy=0;" parent="1" source="T7bW6BCVdLZ2KC2ut9-W-11" target="cnQAAioc3_aUL8yNNFTR-3" edge="1">
          <mxGeometry width="50" height="50" relative="1" as="geometry">
            <mxPoint x="80" y="630" as="sourcePoint" />
            <mxPoint x="130" y="580" as="targetPoint" />
          </mxGeometry>
        </mxCell>
        <mxCell id="T7bW6BCVdLZ2KC2ut9-W-16" value="" style="endArrow=none;html=1;rounded=0;exitX=1;exitY=0.5;exitDx=0;exitDy=0;" parent="1" source="T7bW6BCVdLZ2KC2ut9-W-10" edge="1">
          <mxGeometry width="50" height="50" relative="1" as="geometry">
            <mxPoint x="80" y="630" as="sourcePoint" />
            <mxPoint x="110" y="640" as="targetPoint" />
          </mxGeometry>
        </mxCell>
        <mxCell id="T7bW6BCVdLZ2KC2ut9-W-17" value="" style="endArrow=none;html=1;rounded=0;exitX=1;exitY=0.5;exitDx=0;exitDy=0;entryX=-0.013;entryY=0.406;entryDx=0;entryDy=0;entryPerimeter=0;" parent="1" source="T7bW6BCVdLZ2KC2ut9-W-9" target="cnQAAioc3_aUL8yNNFTR-3" edge="1">
          <mxGeometry width="50" height="50" relative="1" as="geometry">
            <mxPoint x="80" y="630" as="sourcePoint" />
            <mxPoint x="130" y="580" as="targetPoint" />
          </mxGeometry>
        </mxCell>
        <mxCell id="T7bW6BCVdLZ2KC2ut9-W-18" value="" style="endArrow=none;html=1;rounded=0;exitX=1;exitY=0.5;exitDx=0;exitDy=0;entryX=-0.009;entryY=0.143;entryDx=0;entryDy=0;entryPerimeter=0;" parent="1" source="T7bW6BCVdLZ2KC2ut9-W-8" target="cnQAAioc3_aUL8yNNFTR-3" edge="1">
          <mxGeometry width="50" height="50" relative="1" as="geometry">
            <mxPoint x="80" y="630" as="sourcePoint" />
            <mxPoint x="100" y="610" as="targetPoint" />
          </mxGeometry>
        </mxCell>
        <mxCell id="T7bW6BCVdLZ2KC2ut9-W-19" value="" style="endArrow=none;html=1;rounded=0;exitX=1;exitY=1;exitDx=0;exitDy=0;entryX=0.25;entryY=0;entryDx=0;entryDy=0;" parent="1" source="T7bW6BCVdLZ2KC2ut9-W-13" target="cnQAAioc3_aUL8yNNFTR-3" edge="1">
          <mxGeometry width="50" height="50" relative="1" as="geometry">
            <mxPoint x="80" y="630" as="sourcePoint" />
            <mxPoint x="130" y="580" as="targetPoint" />
          </mxGeometry>
        </mxCell>
        <mxCell id="T7bW6BCVdLZ2KC2ut9-W-20" value="IDlibro" style="text;html=1;align=center;verticalAlign=middle;whiteSpace=wrap;rounded=0;" parent="1" vertex="1">
          <mxGeometry x="600" y="235" width="60" height="30" as="geometry" />
        </mxCell>
        <mxCell id="T7bW6BCVdLZ2KC2ut9-W-21" value="titolo" style="text;html=1;align=center;verticalAlign=middle;whiteSpace=wrap;rounded=0;" parent="1" vertex="1">
          <mxGeometry x="660" y="260" width="60" height="30" as="geometry" />
        </mxCell>
        <mxCell id="T7bW6BCVdLZ2KC2ut9-W-22" value="autore" style="text;html=1;align=center;verticalAlign=middle;whiteSpace=wrap;rounded=0;" parent="1" vertex="1">
          <mxGeometry x="690" y="290" width="60" height="30" as="geometry" />
        </mxCell>
        <mxCell id="T7bW6BCVdLZ2KC2ut9-W-23" value="condizioniLibro" style="text;html=1;align=center;verticalAlign=middle;whiteSpace=wrap;rounded=0;" parent="1" vertex="1">
          <mxGeometry x="720" y="370" width="60" height="30" as="geometry" />
        </mxCell>
        <mxCell id="T7bW6BCVdLZ2KC2ut9-W-24" value="genere" style="text;html=1;align=center;verticalAlign=middle;whiteSpace=wrap;rounded=0;" parent="1" vertex="1">
          <mxGeometry x="705" y="410" width="60" height="30" as="geometry" />
        </mxCell>
        <mxCell id="T7bW6BCVdLZ2KC2ut9-W-25" value="annoDiPubblicazione" style="text;html=1;align=center;verticalAlign=middle;whiteSpace=wrap;rounded=0;" parent="1" vertex="1">
          <mxGeometry x="680" y="450" width="60" height="30" as="geometry" />
        </mxCell>
        <mxCell id="T7bW6BCVdLZ2KC2ut9-W-26" value="proprietarioAttuale" style="text;html=1;align=center;verticalAlign=middle;whiteSpace=wrap;rounded=0;" parent="1" vertex="1">
          <mxGeometry x="635" y="480" width="60" height="30" as="geometry" />
        </mxCell>
        <mxCell id="T7bW6BCVdLZ2KC2ut9-W-27" value="disponibilità" style="text;html=1;align=center;verticalAlign=middle;whiteSpace=wrap;rounded=0;" parent="1" vertex="1">
          <mxGeometry x="710" y="330" width="60" height="30" as="geometry" />
        </mxCell>
        <mxCell id="T7bW6BCVdLZ2KC2ut9-W-28" value="" style="ellipse;whiteSpace=wrap;html=1;aspect=fixed;fillColor=none;" parent="1" vertex="1">
          <mxGeometry x="660" y="270" width="10" height="10" as="geometry" />
        </mxCell>
        <mxCell id="T7bW6BCVdLZ2KC2ut9-W-29" value="" style="ellipse;whiteSpace=wrap;html=1;aspect=fixed;fillColor=none;" parent="1" vertex="1">
          <mxGeometry x="685" y="300" width="10" height="10" as="geometry" />
        </mxCell>
        <mxCell id="T7bW6BCVdLZ2KC2ut9-W-30" value="" style="ellipse;whiteSpace=wrap;html=1;aspect=fixed;fillColor=none;" parent="1" vertex="1">
          <mxGeometry x="690" y="340" width="10" height="10" as="geometry" />
        </mxCell>
        <mxCell id="T7bW6BCVdLZ2KC2ut9-W-31" value="" style="ellipse;whiteSpace=wrap;html=1;aspect=fixed;fillColor=none;" parent="1" vertex="1">
          <mxGeometry x="695" y="380" width="10" height="10" as="geometry" />
        </mxCell>
        <mxCell id="T7bW6BCVdLZ2KC2ut9-W-32" value="" style="ellipse;whiteSpace=wrap;html=1;aspect=fixed;fillColor=none;" parent="1" vertex="1">
          <mxGeometry x="700" y="420" width="10" height="10" as="geometry" />
        </mxCell>
        <mxCell id="T7bW6BCVdLZ2KC2ut9-W-33" value="" style="ellipse;whiteSpace=wrap;html=1;aspect=fixed;fillColor=none;" parent="1" vertex="1">
          <mxGeometry x="635" y="460" width="10" height="10" as="geometry" />
        </mxCell>
        <mxCell id="T7bW6BCVdLZ2KC2ut9-W-34" value="" style="ellipse;whiteSpace=wrap;html=1;aspect=fixed;fillColor=none;" parent="1" vertex="1">
          <mxGeometry x="600" y="490" width="10" height="10" as="geometry" />
        </mxCell>
        <mxCell id="T7bW6BCVdLZ2KC2ut9-W-35" value="" style="ellipse;whiteSpace=wrap;html=1;aspect=fixed;fillColor=#dae8fc;strokeColor=#6c8ebf;" parent="1" vertex="1">
          <mxGeometry x="600" y="245" width="10" height="10" as="geometry" />
        </mxCell>
        <mxCell id="T7bW6BCVdLZ2KC2ut9-W-36" value="" style="endArrow=none;html=1;rounded=0;entryX=0;entryY=0.5;entryDx=0;entryDy=0;exitX=0.993;exitY=0.632;exitDx=0;exitDy=0;exitPerimeter=0;" parent="1" source="cnQAAioc3_aUL8yNNFTR-2" target="T7bW6BCVdLZ2KC2ut9-W-31" edge="1">
          <mxGeometry width="50" height="50" relative="1" as="geometry">
            <mxPoint x="480" y="430" as="sourcePoint" />
            <mxPoint x="530" y="380" as="targetPoint" />
          </mxGeometry>
        </mxCell>
        <mxCell id="T7bW6BCVdLZ2KC2ut9-W-37" value="" style="endArrow=none;html=1;rounded=0;entryX=0;entryY=1;entryDx=0;entryDy=0;exitX=1;exitY=0.25;exitDx=0;exitDy=0;" parent="1" source="cnQAAioc3_aUL8yNNFTR-2" target="T7bW6BCVdLZ2KC2ut9-W-30" edge="1">
          <mxGeometry width="50" height="50" relative="1" as="geometry">
            <mxPoint x="480" y="430" as="sourcePoint" />
            <mxPoint x="530" y="380" as="targetPoint" />
          </mxGeometry>
        </mxCell>
        <mxCell id="T7bW6BCVdLZ2KC2ut9-W-38" value="" style="endArrow=none;html=1;rounded=0;entryX=0;entryY=1;entryDx=0;entryDy=0;exitX=0.954;exitY=-0.008;exitDx=0;exitDy=0;exitPerimeter=0;" parent="1" source="cnQAAioc3_aUL8yNNFTR-2" target="T7bW6BCVdLZ2KC2ut9-W-29" edge="1">
          <mxGeometry width="50" height="50" relative="1" as="geometry">
            <mxPoint x="480" y="430" as="sourcePoint" />
            <mxPoint x="530" y="380" as="targetPoint" />
          </mxGeometry>
        </mxCell>
        <mxCell id="T7bW6BCVdLZ2KC2ut9-W-39" value="" style="endArrow=none;html=1;rounded=0;entryX=0.5;entryY=1;entryDx=0;entryDy=0;exitX=0.75;exitY=0;exitDx=0;exitDy=0;" parent="1" source="cnQAAioc3_aUL8yNNFTR-2" target="T7bW6BCVdLZ2KC2ut9-W-28" edge="1">
          <mxGeometry width="50" height="50" relative="1" as="geometry">
            <mxPoint x="480" y="430" as="sourcePoint" />
            <mxPoint x="530" y="380" as="targetPoint" />
          </mxGeometry>
        </mxCell>
        <mxCell id="T7bW6BCVdLZ2KC2ut9-W-40" value="" style="endArrow=none;html=1;rounded=0;entryX=0.5;entryY=1;entryDx=0;entryDy=0;exitX=0.665;exitY=-0.017;exitDx=0;exitDy=0;exitPerimeter=0;" parent="1" source="cnQAAioc3_aUL8yNNFTR-2" target="T7bW6BCVdLZ2KC2ut9-W-35" edge="1">
          <mxGeometry width="50" height="50" relative="1" as="geometry">
            <mxPoint x="480" y="430" as="sourcePoint" />
            <mxPoint x="530" y="380" as="targetPoint" />
          </mxGeometry>
        </mxCell>
        <mxCell id="T7bW6BCVdLZ2KC2ut9-W-41" value="" style="endArrow=none;html=1;rounded=0;entryX=0;entryY=0.5;entryDx=0;entryDy=0;exitX=1;exitY=1;exitDx=0;exitDy=0;" parent="1" source="cnQAAioc3_aUL8yNNFTR-2" target="T7bW6BCVdLZ2KC2ut9-W-32" edge="1">
          <mxGeometry width="50" height="50" relative="1" as="geometry">
            <mxPoint x="480" y="430" as="sourcePoint" />
            <mxPoint x="530" y="380" as="targetPoint" />
          </mxGeometry>
        </mxCell>
        <mxCell id="T7bW6BCVdLZ2KC2ut9-W-42" value="" style="endArrow=none;html=1;rounded=0;entryX=0.5;entryY=0;entryDx=0;entryDy=0;exitX=0.866;exitY=0.991;exitDx=0;exitDy=0;exitPerimeter=0;" parent="1" source="cnQAAioc3_aUL8yNNFTR-2" target="T7bW6BCVdLZ2KC2ut9-W-33" edge="1">
          <mxGeometry width="50" height="50" relative="1" as="geometry">
            <mxPoint x="480" y="430" as="sourcePoint" />
            <mxPoint x="530" y="380" as="targetPoint" />
          </mxGeometry>
        </mxCell>
        <mxCell id="T7bW6BCVdLZ2KC2ut9-W-43" value="" style="endArrow=none;html=1;rounded=0;entryX=0.5;entryY=0;entryDx=0;entryDy=0;exitX=0.655;exitY=1.007;exitDx=0;exitDy=0;exitPerimeter=0;" parent="1" source="cnQAAioc3_aUL8yNNFTR-2" target="T7bW6BCVdLZ2KC2ut9-W-34" edge="1">
          <mxGeometry width="50" height="50" relative="1" as="geometry">
            <mxPoint x="600" y="420" as="sourcePoint" />
            <mxPoint x="530" y="380" as="targetPoint" />
          </mxGeometry>
        </mxCell>
        <mxCell id="T7bW6BCVdLZ2KC2ut9-W-44" value="IDuser" style="text;html=1;align=center;verticalAlign=middle;whiteSpace=wrap;rounded=0;" parent="1" vertex="1">
          <mxGeometry x="40" y="290" width="60" height="30" as="geometry" />
        </mxCell>
        <mxCell id="T7bW6BCVdLZ2KC2ut9-W-45" value="nome" style="text;html=1;align=center;verticalAlign=middle;whiteSpace=wrap;rounded=0;" parent="1" vertex="1">
          <mxGeometry x="15" y="310" width="60" height="30" as="geometry" />
        </mxCell>
        <mxCell id="T7bW6BCVdLZ2KC2ut9-W-46" value="cognome" style="text;html=1;align=center;verticalAlign=middle;whiteSpace=wrap;rounded=0;" parent="1" vertex="1">
          <mxGeometry y="330" width="60" height="30" as="geometry" />
        </mxCell>
        <mxCell id="T7bW6BCVdLZ2KC2ut9-W-47" value="indirizzoEmail" style="text;html=1;align=center;verticalAlign=middle;whiteSpace=wrap;rounded=0;" parent="1" vertex="1">
          <mxGeometry x="-20" y="350" width="60" height="30" as="geometry" />
        </mxCell>
        <mxCell id="T7bW6BCVdLZ2KC2ut9-W-48" value="indirizzoDiSpedizione" style="text;html=1;align=center;verticalAlign=middle;whiteSpace=wrap;rounded=0;" parent="1" vertex="1">
          <mxGeometry x="-30" y="370" width="60" height="30" as="geometry" />
        </mxCell>
        <mxCell id="T7bW6BCVdLZ2KC2ut9-W-49" value="numeroDiTelefono" style="text;html=1;align=center;verticalAlign=middle;whiteSpace=wrap;rounded=0;" parent="1" vertex="1">
          <mxGeometry x="-40" y="390" width="60" height="30" as="geometry" />
        </mxCell>
        <mxCell id="T7bW6BCVdLZ2KC2ut9-W-51" value="valutazioni" style="text;html=1;align=center;verticalAlign=middle;whiteSpace=wrap;rounded=0;" parent="1" vertex="1">
          <mxGeometry x="-20" y="410" width="60" height="30" as="geometry" />
        </mxCell>
        <mxCell id="T7bW6BCVdLZ2KC2ut9-W-52" value="dataDiRegistrazione" style="text;html=1;align=center;verticalAlign=middle;whiteSpace=wrap;rounded=0;" parent="1" vertex="1">
          <mxGeometry x="20" y="450" width="60" height="30" as="geometry" />
        </mxCell>
        <mxCell id="T7bW6BCVdLZ2KC2ut9-W-53" value="preferenzeGenereLetterario" style="text;html=1;align=center;verticalAlign=middle;whiteSpace=wrap;rounded=0;" parent="1" vertex="1">
          <mxGeometry x="-10" y="430" width="60" height="30" as="geometry" />
        </mxCell>
        <mxCell id="T7bW6BCVdLZ2KC2ut9-W-59" value="" style="ellipse;whiteSpace=wrap;html=1;aspect=fixed;fillColor=none;" parent="1" vertex="1">
          <mxGeometry x="65" y="320" width="10" height="10" as="geometry" />
        </mxCell>
        <mxCell id="T7bW6BCVdLZ2KC2ut9-W-60" value="" style="ellipse;whiteSpace=wrap;html=1;aspect=fixed;fillColor=none;" parent="1" vertex="1">
          <mxGeometry x="60" y="340" width="10" height="10" as="geometry" />
        </mxCell>
        <mxCell id="T7bW6BCVdLZ2KC2ut9-W-61" value="" style="ellipse;whiteSpace=wrap;html=1;aspect=fixed;fillColor=none;" parent="1" vertex="1">
          <mxGeometry x="55" y="360" width="10" height="10" as="geometry" />
        </mxCell>
        <mxCell id="T7bW6BCVdLZ2KC2ut9-W-62" value="" style="ellipse;whiteSpace=wrap;html=1;aspect=fixed;fillColor=none;" parent="1" vertex="1">
          <mxGeometry x="60" y="380" width="10" height="10" as="geometry" />
        </mxCell>
        <mxCell id="T7bW6BCVdLZ2KC2ut9-W-63" value="" style="ellipse;whiteSpace=wrap;html=1;aspect=fixed;fillColor=none;" parent="1" vertex="1">
          <mxGeometry x="45" y="420" width="10" height="10" as="geometry" />
        </mxCell>
        <mxCell id="T7bW6BCVdLZ2KC2ut9-W-64" value="" style="ellipse;whiteSpace=wrap;html=1;aspect=fixed;fillColor=none;" parent="1" vertex="1">
          <mxGeometry x="45" y="400" width="10" height="10" as="geometry" />
        </mxCell>
        <mxCell id="T7bW6BCVdLZ2KC2ut9-W-65" value="" style="ellipse;whiteSpace=wrap;html=1;aspect=fixed;fillColor=none;" parent="1" vertex="1">
          <mxGeometry x="100" y="440" width="10" height="10" as="geometry" />
        </mxCell>
        <mxCell id="T7bW6BCVdLZ2KC2ut9-W-66" value="" style="ellipse;whiteSpace=wrap;html=1;aspect=fixed;fillColor=none;" parent="1" vertex="1">
          <mxGeometry x="110" y="460" width="10" height="10" as="geometry" />
        </mxCell>
        <mxCell id="T7bW6BCVdLZ2KC2ut9-W-67" value="" style="ellipse;whiteSpace=wrap;html=1;aspect=fixed;fillColor=#dae8fc;strokeColor=#6c8ebf;" parent="1" vertex="1">
          <mxGeometry x="90" y="300" width="10" height="10" as="geometry" />
        </mxCell>
        <mxCell id="T7bW6BCVdLZ2KC2ut9-W-68" value="" style="endArrow=none;html=1;rounded=0;entryX=1;entryY=0.5;entryDx=0;entryDy=0;exitX=0;exitY=0.75;exitDx=0;exitDy=0;" parent="1" source="cnQAAioc3_aUL8yNNFTR-1" target="T7bW6BCVdLZ2KC2ut9-W-64" edge="1">
          <mxGeometry width="50" height="50" relative="1" as="geometry">
            <mxPoint x="-120" y="470" as="sourcePoint" />
            <mxPoint x="-70" y="420" as="targetPoint" />
          </mxGeometry>
        </mxCell>
        <mxCell id="T7bW6BCVdLZ2KC2ut9-W-69" value="" style="endArrow=none;html=1;rounded=0;entryX=1;entryY=0.5;entryDx=0;entryDy=0;exitX=0.003;exitY=0.92;exitDx=0;exitDy=0;exitPerimeter=0;" parent="1" source="cnQAAioc3_aUL8yNNFTR-1" target="T7bW6BCVdLZ2KC2ut9-W-63" edge="1">
          <mxGeometry width="50" height="50" relative="1" as="geometry">
            <mxPoint x="-130" y="470" as="sourcePoint" />
            <mxPoint x="-80" y="420" as="targetPoint" />
          </mxGeometry>
        </mxCell>
        <mxCell id="T7bW6BCVdLZ2KC2ut9-W-70" value="" style="endArrow=none;html=1;rounded=0;entryX=1;entryY=0.5;entryDx=0;entryDy=0;" parent="1" target="T7bW6BCVdLZ2KC2ut9-W-62" edge="1">
          <mxGeometry width="50" height="50" relative="1" as="geometry">
            <mxPoint x="110" y="380" as="sourcePoint" />
            <mxPoint x="110" y="380" as="targetPoint" />
          </mxGeometry>
        </mxCell>
        <mxCell id="T7bW6BCVdLZ2KC2ut9-W-71" value="" style="endArrow=none;html=1;rounded=0;entryX=1;entryY=0.5;entryDx=0;entryDy=0;exitX=0.007;exitY=0.376;exitDx=0;exitDy=0;exitPerimeter=0;" parent="1" source="cnQAAioc3_aUL8yNNFTR-1" target="T7bW6BCVdLZ2KC2ut9-W-61" edge="1">
          <mxGeometry width="50" height="50" relative="1" as="geometry">
            <mxPoint x="60" y="430" as="sourcePoint" />
            <mxPoint x="110" y="380" as="targetPoint" />
          </mxGeometry>
        </mxCell>
        <mxCell id="T7bW6BCVdLZ2KC2ut9-W-72" value="" style="endArrow=none;html=1;rounded=0;entryX=1;entryY=0.5;entryDx=0;entryDy=0;exitX=-0.004;exitY=0.159;exitDx=0;exitDy=0;exitPerimeter=0;" parent="1" source="cnQAAioc3_aUL8yNNFTR-1" target="T7bW6BCVdLZ2KC2ut9-W-60" edge="1">
          <mxGeometry width="50" height="50" relative="1" as="geometry">
            <mxPoint x="60" y="430" as="sourcePoint" />
            <mxPoint x="110" y="380" as="targetPoint" />
          </mxGeometry>
        </mxCell>
        <mxCell id="T7bW6BCVdLZ2KC2ut9-W-73" value="" style="endArrow=none;html=1;rounded=0;entryX=1;entryY=0.5;entryDx=0;entryDy=0;exitX=0;exitY=0;exitDx=0;exitDy=0;" parent="1" source="cnQAAioc3_aUL8yNNFTR-1" target="T7bW6BCVdLZ2KC2ut9-W-45" edge="1">
          <mxGeometry width="50" height="50" relative="1" as="geometry">
            <mxPoint x="60" y="430" as="sourcePoint" />
            <mxPoint x="110" y="380" as="targetPoint" />
          </mxGeometry>
        </mxCell>
        <mxCell id="T7bW6BCVdLZ2KC2ut9-W-74" value="" style="endArrow=none;html=1;rounded=0;entryX=1;entryY=1;entryDx=0;entryDy=0;exitX=0.083;exitY=0.013;exitDx=0;exitDy=0;exitPerimeter=0;" parent="1" source="cnQAAioc3_aUL8yNNFTR-1" target="T7bW6BCVdLZ2KC2ut9-W-67" edge="1">
          <mxGeometry width="50" height="50" relative="1" as="geometry">
            <mxPoint x="60" y="430" as="sourcePoint" />
            <mxPoint x="110" y="380" as="targetPoint" />
          </mxGeometry>
        </mxCell>
        <mxCell id="T7bW6BCVdLZ2KC2ut9-W-76" value="" style="endArrow=none;html=1;rounded=0;entryX=0.406;entryY=1.044;entryDx=0;entryDy=0;entryPerimeter=0;exitX=1;exitY=0;exitDx=0;exitDy=0;" parent="1" source="T7bW6BCVdLZ2KC2ut9-W-66" target="cnQAAioc3_aUL8yNNFTR-1" edge="1">
          <mxGeometry width="50" height="50" relative="1" as="geometry">
            <mxPoint x="60" y="430" as="sourcePoint" />
            <mxPoint x="110" y="380" as="targetPoint" />
          </mxGeometry>
        </mxCell>
        <mxCell id="T7bW6BCVdLZ2KC2ut9-W-77" value="" style="endArrow=none;html=1;rounded=0;entryX=0.25;entryY=1;entryDx=0;entryDy=0;exitX=1;exitY=0;exitDx=0;exitDy=0;" parent="1" source="T7bW6BCVdLZ2KC2ut9-W-65" target="cnQAAioc3_aUL8yNNFTR-1" edge="1">
          <mxGeometry width="50" height="50" relative="1" as="geometry">
            <mxPoint x="60" y="430" as="sourcePoint" />
            <mxPoint x="110" y="380" as="targetPoint" />
          </mxGeometry>
        </mxCell>
      </root>
    </mxGraphModel>
  </diagram>
</mxfile>
